<svg xmlns="http://www.w3.org/2000/svg" xmlns:xlink="http://www.w3.org/1999/xlink" version="1.1" width="192" height="192" viewBox="0 0 192 192" xml:space="preserve">
    <desc>
        Created with Fabric.js 5.4.0
    </desc>
    <defs/>
    <rect x="0" y="0" width="100%" height="100%" fill="transparent"/>
    <g transform="matrix(1 0 0 1 96.5 96.1)">
        <g style="">
            <g transform="matrix(1 0 0 1 0 0)">
                <rect x="-80.51647373107748" y="-87.00999999999999" rx="0" ry="0" width="161.03294746215497" height="174.01999999999998" stroke="rgb(255,255,255)" stroke-opacity="0" stroke-width="1" stroke-dasharray="none" stroke-linecap="butt" stroke-dashoffset="0" stroke-linejoin="miter" stroke-miterlimit="4" fill="rgb(255,255,255)" fill-opacity="0" fill-rule="nonzero" opacity="1"/>
            </g>
            <g transform="matrix(1 0 0 1 -26.18 -5.81)">
                <path paint-order="stroke" transform=" translate(-70.32, -90.29)" d="M 68.39 143.82 L 40.83 143.98 Q 40.06 143.98 40.06 143.21 L 40.06 143.21 L 40.36 37.41 Q 40.36 36.79 40.98 36.79 L 40.98 36.79 L 69.78 36.64 Q 78.25 36.49 85.25 40.64 Q 92.26 44.8 96.42 51.81 Q 100.58 58.82 100.58 67.29 L 100.58 67.29 L 100.58 111.48 Q 100.58 120.42 96.27 127.73 Q 91.95 135.05 84.72 139.36 Q 77.48 143.67 68.39 143.82 L 68.39 143.82 Z M 59 55.27 L 58.84 125.04 L 68.39 125.04 Q 74.09 125.04 78.02 121.03 Q 81.94 117.03 81.94 111.48 L 81.94 111.48 L 81.94 67.13 Q 81.94 62.2 78.32 58.58 Q 74.71 54.97 69.78 55.12 L 69.78 55.12 L 59 55.27 Z" stroke-linecap="butt" stroke="rgb(255,255,255)" stroke-width="0" stroke-dasharray="none" stroke-dashoffset="0" stroke-linejoin="miter" stroke-miterlimit="4" fill="rgb(255,191,93)" fill-rule="nonzero" opacity="1"/>
            </g>
            <g transform="matrix(1 0 0 1 25.87 -4.86)">
                <path paint-order="stroke" transform=" translate(-122.37, -91.24)" d="M 122.45 145.52 L 122.45 145.52 Q 113.82 145.52 106.97 141.44 Q 100.12 137.36 96.19 130.19 Q 92.26 123.03 92.26 114.1 L 92.26 114.1 L 92.26 107.02 Q 92.26 106.4 92.88 106.4 L 92.88 106.4 L 110.28 106.4 Q 110.9 106.4 110.9 107.17 L 110.9 107.17 L 110.9 114.1 Q 110.9 119.8 114.13 123.34 Q 117.36 126.88 122.45 126.88 L 122.45 126.88 Q 127.07 126.88 130.45 123.03 Q 133.84 119.18 133.84 114.1 L 133.84 114.1 L 133.84 37.56 Q 133.84 36.95 134.46 36.95 L 134.46 36.95 L 151.71 36.95 Q 152.32 36.95 152.32 37.72 L 152.32 37.72 L 152.48 114.1 Q 152.48 122.57 148.39 129.73 Q 144.31 136.89 137.54 141.21 Q 130.76 145.52 122.45 145.52 Z" stroke-linecap="butt" stroke="rgb(255,255,255)" stroke-width="0" stroke-dasharray="none" stroke-dashoffset="0" stroke-linejoin="miter" stroke-miterlimit="4" fill="rgb(255,191,93)" fill-rule="nonzero" opacity="1"/>
            </g>
        </g>
    </g>
</svg>
