<svg xmlns="http://www.w3.org/2000/svg" xml:space="preserve" width="2000" height="144" data-id="lg_x9V6tkaCRxlklmfuJk" data-version="1" viewBox="0 0 2000 144"><g data-padding="20"><g transform="translate(10 2.58)scale(.96416)"><rect width="552.369" height="143.804" x="350.618" y="-399.902" fill="#332613" stroke="#ffbf5d" stroke-width="7.5" paint-order="stroke" rx="10" ry="10" transform="translate(400.61 400)"/><path fill="#fafafa" stroke="#ffbf5d" stroke-width="3.5" d="M747.976 89.75h557.654"/><rect width="350.638" height="80.23" x="451.484" y="-368.115" fill="none" rx="0" ry="0" transform="translate(401.11 375.04)"/><path fill="#ffbf5d" d="m869.993 68.77-12.71.08q-.36 0-.36-.36l.15-48.78q0-.28.28-.28l13.28-.07q3.9-.07 7.13 1.84 3.23 1.92 5.15 5.15t1.92 7.14v20.37q0 4.12-1.99 7.49-1.99 3.38-5.33 5.37-3.33 1.98-7.52 2.05m-4.33-40.82-.07 32.16h4.4q2.63 0 4.44-1.84 1.81-1.85 1.81-4.41V33.42q0-2.28-1.67-3.94-1.67-1.67-3.94-1.6Zm22.36 40.54 8.81-48.78q.07-.28.35-.28h10.3q.28 0 .35.28l8.45 48.78q.07.36-.28.36h-7.88q-.29 0-.36-.36l-.78-5.18h-9.66l-.78 5.18q-.07.36-.35.36h-7.88q-.29 0-.29-.36m13.92-32.73-3.2 19.95h6.82l-2.91-19.95-.43-2.63Zm33.94 33.09h-8.59q-.29 0-.36-.36l-8.38-48.78q-.07-.28.22-.28h7.95q.28 0 .35.28l4.55 32.1 4.68-32.1q.07-.28.43-.28h6.39q.28 0 .35.28l4.62 32.1 4.61-32.1q.07-.28.36-.28h7.88q.35 0 .28.28l-8.45 48.78q-.07.14-.21.25l-.14.11h-8.59q-.21 0-.36-.36L939.853 43l-3.62 25.49q-.07.36-.35.36m37.91 0h-8.02q-.36 0-.36-.36l.07-48.78q0-.28.29-.28h7.95q.28 0 .28.28l.07 48.78q0 .36-.28.36m21.65 0h-8.03q-.28 0-.28-.36V28.02h-9.23q-.36 0-.36-.35l.07-7.96q0-.28.29-.28h26.98q.35 0 .35.28v7.96q0 .35-.28.35h-9.3l.07 40.47q0 .36-.28.36m35.43.71q-3.97 0-7.13-1.89-3.16-1.88-4.97-5.18t-1.81-7.42v-3.26q0-.29.28-.29h8.03q.28 0 .28.36v3.19q0 2.63 1.49 4.26t3.83 1.63q2.13 0 3.7-1.77 1.56-1.78 1.56-4.12V19.78q0-.28.28-.28h7.95q.29 0 .29.36l.07 35.21q0 3.91-1.88 7.21t-5.01 5.29q-3.12 1.99-6.96 1.99m32.38-.01q-3.83 0-6.99-1.96-3.16-1.95-5.08-5.18t-1.92-7.14l.07-22.5q0-3.91 1.89-7.1 1.88-3.2 5.07-5.11 3.2-1.92 6.96-1.92 3.83 0 6.96 1.92 3.12 1.91 5 5.11 1.89 3.19 1.89 7.1l.07 22.5q0 3.91-1.89 7.14-1.88 3.23-5.04 5.18-3.16 1.96-6.99 1.96m0-8.6q2.13 0 3.73-1.74 1.6-1.73 1.6-3.94l-.08-22.5q0-2.35-1.49-3.98t-3.76-1.63q-2.2 0-3.76 1.6-1.56 1.59-1.56 4.01v22.5q0 2.35 1.56 4.02 1.56 1.66 3.76 1.66m32.31 8.6q-3.84 0-6.96-1.92-3.13-1.92-5.01-5.15t-1.88-7.21v-22.5q0-3.84 1.88-7.07t5.04-5.14q3.16-1.92 6.93-1.92 3.9 0 7.06 1.88t5.01 5.08q1.84 3.19 1.84 7.17v3.26q0 .29-.35.29h-7.96q-.28 0-.28-.29v-2.69q0-2.7-1.53-4.48-1.52-1.77-3.79-1.77-2.06 0-3.66 1.7-1.6 1.71-1.6 3.98v22.5q0 2.35 1.56 4.02 1.57 1.66 3.7 1.66 2.27 0 3.79-1.63 1.53-1.63 1.53-4.05V51.8h-4.97q-.35 0-.35-.36v-7.95q0-.36.35-.36h13.28q.28 0 .28.36v11.78q0 3.98-1.88 7.21t-5.01 5.15q-3.12 1.92-7.02 1.92m32.09 0q-3.84 0-7-1.96-3.16-1.95-5.07-5.18-1.92-3.23-1.92-7.14l.07-22.5q0-3.91 1.88-7.1 1.88-3.2 5.08-5.11 3.19-1.92 6.96-1.92 3.83 0 6.96 1.92 3.12 1.91 5 5.11 1.88 3.19 1.88 7.1l.07 22.5q0 3.91-1.88 7.14t-5.04 5.18q-3.16 1.96-6.99 1.96m0-8.6q2.13 0 3.72-1.74 1.6-1.73 1.6-3.94l-.07-22.5q0-2.35-1.49-3.98t-3.76-1.63q-2.2 0-3.77 1.6-1.56 1.59-1.56 4.01v22.5q0 2.35 1.56 4.02 1.57 1.66 3.77 1.66m27.62 7.9h-8.03q-.28 0-.28-.36l.14-48.78q0-.28.29-.28h14.34q3.83 0 7.06 1.88t5.15 5.04 1.92 7.14q0 2.62-.78 4.72-.79 2.09-1.85 3.55-1.07 1.45-1.92 2.16 3.84 4.26 3.84 10.02l.07 14.55q0 .36-.36.36h-8.02q-.28 0-.28-.22V53.94q0-2.56-1.82-4.44-1.81-1.88-4.43-1.88h-4.69l-.07 20.87q0 .36-.28.36m.35-40.9V39.1h6.11q2.2 0 3.9-1.64 1.71-1.63 1.71-3.97 0-2.27-1.67-3.91-1.67-1.63-3.94-1.63Zm23.15 40.54 8.8-48.78q.07-.28.36-.28h10.29q.29 0 .36.28l8.45 48.78q.07.36-.29.36h-7.88q-.28 0-.35-.36l-.79-5.18h-9.65l-.78 5.18q-.07.36-.36.36h-7.88q-.28 0-.28-.36m13.91-32.73-3.19 19.95h6.81l-2.91-19.95-.42-2.63Z"/><rect width="83.703" height="27.12" x="584.952" y="-341.56" fill="none" rx="0" ry="0" transform="translate(176.23 445.48)"/><path fill="#ffbf5d" d="M769.493 124.53h-7.76q-.09 0-.09-.12l.02-16.49q0-.1.1-.1h7.7q.1 0 .1.13v2.68q0 .1-.1.1h-4.92v3.74h4.92q.1 0 .1.1l.02 2.71q0 .1-.09.1h-4.95v4.2h4.95q.09 0 .09.12v2.73q0 .1-.09.1m6.31.24q-1.3 0-2.37-.66-1.06-.66-1.7-1.75-.64-1.1-.64-2.41v-1.11q0-.12.12-.12h2.69q.1 0 .1.12v1.11q0 .79.53 1.35.52.57 1.27.57.74 0 1.27-.58t.53-1.34q0-.89-1.15-1.54-.39-.22-1.2-.67-.82-.46-1.54-.87-1.32-.76-1.96-1.93-.63-1.16-.63-2.63 0-1.34.65-2.41.64-1.07 1.71-1.69 1.07-.63 2.32-.63 1.27 0 2.34.64t1.7 1.71q.64 1.06.64 2.38v1.97q0 .1-.1.1h-2.69q-.09 0-.09-.1l-.03-1.97q0-.84-.52-1.36-.53-.53-1.25-.53-.75 0-1.27.56-.53.57-.53 1.33 0 .8.33 1.32.34.53 1.23 1.01.12.07.47.25.34.18.75.41t.73.4q.33.17.4.21 1.2.67 1.9 1.65.69.97.69 2.39 0 1.36-.63 2.45-.64 1.1-1.71 1.73-1.07.64-2.36.64m11.49-.24h-2.71q-.09 0-.09-.12v-13.68h-3.12q-.12 0-.12-.12l.02-2.69q0-.1.1-.1h9.12q.12 0 .12.1v2.69q0 .12-.1.12h-3.14l.02 13.68q0 .12-.1.12m7.3-.01h-2.71q-.1 0-.1-.1v-2.71q0-.09.1-.09h2.71q.1 0 .1.09v2.71q0 .1-.1.1m14.23.01h-8.95q-.12 0-.12-.12v-2.71q0-.05.05-.1l5.93-8.14q.16-.21.27-.56t.11-.61q0-.7-.5-1.28-.51-.59-1.28-.59-.74 0-1.26.56-.51.57-.51 1.43v1.17q0 .12-.12.12h-2.69q-.1 0-.1-.12v-1.17q0-1.34.66-2.45.66-1.1 1.73-1.75t2.29-.65q1.3 0 2.36.66 1.05.66 1.69 1.74.63 1.08.63 2.33 0 .79-.27 1.61-.28.81-.76 1.44l-4.56 6.26h5.4q.1 0 .1.1v2.71q0 .12-.1.12m6.84.24q-1.53 0-2.71-.66t-1.84-1.75q-.66-1.1-.66-2.41l.03-7.61q0-1.32.66-2.4t1.83-1.73q1.18-.65 2.69-.65 1.54 0 2.69.65t1.81 1.73.66 2.4l.03 7.61q0 1.31-.66 2.41-.66 1.09-1.83 1.75-1.16.66-2.7.66m2.28-4.82-.02-7.61q0-.84-.63-1.37-.62-.53-1.63-.53-1.03 0-1.65.53-.63.53-.63 1.37v7.61q0 .88.63 1.4.62.52 1.65.52 1.01 0 1.65-.52.63-.52.63-1.4m13.35 4.58h-8.96q-.12 0-.12-.12v-2.71q0-.05.05-.1l5.93-8.14q.17-.21.28-.56.1-.35.1-.61 0-.7-.5-1.28-.5-.59-1.27-.59-.75 0-1.26.56-.52.57-.52 1.43v1.17q0 .12-.12.12h-2.69q-.09 0-.09-.12v-1.17q0-1.34.66-2.45.66-1.1 1.73-1.75 1.06-.65 2.29-.65 1.29 0 2.35.66t1.69 1.74q.64 1.08.64 2.33 0 .79-.28 1.61-.27.81-.75 1.44l-4.56 6.26h5.4q.09 0 .09.1v2.71q0 .12-.09.12m9.38 0h-2.71q-.1 0-.1-.12v-2.81h-5.18q-.1 0-.1-.12v-2.64l5.23-10.92q.05-.1.15-.1h2.71q.07 0 .07.1l.03 10.83h1.68q.12 0 .12.12v2.61q0 .12-.1.12h-1.7v2.81q0 .12-.1.12m-2.81-11.02-2.45 5.24h2.45Z"/><rect width="287.674" height="23.73" x="482.966" y="-339.865" fill="none" rx="0" ry="0" transform="translate(521.2 442.7)"/><path fill="#ffbf5d" d="M1018.913 120.8h-2.35q-.1 0-.1-.11l.04-14.42q0-.09.08-.09h4.04q1.93 0 3.05 1.18 1.12 1.17 1.12 3.19 0 1.49-.58 2.58-.59 1.09-1.54 1.68-.94.59-2.05.59h-1.6v5.29q0 .11-.11.11m.11-12.1v4.16h1.6q.67 0 1.16-.64t.49-1.67q0-.82-.44-1.34-.44-.53-1.21-.53Zm6.48 11.99 2.6-14.42q.02-.09.11-.09h3.04q.09 0 .11.09l2.5 14.42q.02.11-.09.11h-2.33q-.08 0-.1-.11l-.23-1.53h-2.86l-.23 1.53q-.02.11-.11.11h-2.33q-.08 0-.08-.11m4.11-9.68-.94 5.9h2.02l-.87-5.9-.12-.78Zm9.14 10q-1.13 0-2.07-.58-.93-.58-1.49-1.53-.56-.96-.56-2.11v-.97q0-.1.11-.1h2.35q.08 0 .08.1v.97q0 .69.47 1.18.46.5 1.11.5t1.11-.51q.46-.5.46-1.17 0-.78-1-1.35l-1.05-.59q-.72-.39-1.35-.75-1.15-.67-1.71-1.69t-.56-2.3q0-1.18.57-2.11.57-.94 1.5-1.48.94-.55 2.03-.55 1.11 0 2.05.56.93.55 1.49 1.49.55.93.55 2.09v1.72q0 .08-.08.08h-2.35q-.09 0-.09-.08l-.02-1.72q0-.74-.46-1.2t-1.09-.46q-.65 0-1.11.49-.47.5-.47 1.17 0 .69.3 1.15.29.47 1.07.89.1.06.41.22.3.15.66.35t.64.35.35.19q1.05.59 1.66 1.44t.61 2.09q0 1.19-.56 2.15-.56.95-1.49 1.51-.94.56-2.07.56m9.16 0q-1.14 0-2.07-.58-.94-.58-1.49-1.53-.56-.96-.56-2.11v-.97q0-.1.1-.1h2.36q.08 0 .08.1v.97q0 .69.46 1.18.46.5 1.12.5.65 0 1.11-.51.46-.5.46-1.17 0-.78-1.01-1.35-.33-.19-1.05-.59-.71-.39-1.34-.75-1.16-.67-1.71-1.69-.56-1.02-.56-2.3 0-1.18.57-2.11.56-.94 1.5-1.48.93-.55 2.03-.55 1.11 0 2.04.56.94.55 1.49 1.49.56.93.56 2.09v1.72q0 .08-.08.08h-2.36q-.08 0-.08-.08l-.02-1.72q0-.74-.46-1.2t-1.09-.46q-.66 0-1.12.49-.46.5-.46 1.17 0 .69.29 1.15.3.47 1.08.89.1.06.41.22.3.15.66.35.35.2.64.35.28.15.34.19 1.05.59 1.66 1.44t.61 2.09q0 1.19-.55 2.15-.56.95-1.5 1.51-.93.56-2.06.56m8.06-.21h-2.37q-.11 0-.11-.11l.02-14.42q0-.09.09-.09h2.35q.08 0 .08.09l.02 14.42q0 .11-.08.11m5.82.21q-1.14 0-2.07-.58-.94-.58-1.5-1.53-.57-.96-.57-2.11l.02-6.66q0-1.16.56-2.1.55-.95 1.5-1.51.94-.57 2.06-.57 1.13 0 2.05.57.93.56 1.49 1.51.55.94.55 2.1l.02 6.66q0 1.15-.55 2.11-.56.95-1.49 1.53-.94.58-2.07.58m0-2.54q.63 0 1.1-.52.47-.51.47-1.16l-.02-6.66q0-.69-.44-1.18-.44-.48-1.11-.48-.65 0-1.12.47-.46.48-.46 1.19v6.66q0 .69.46 1.18.47.5 1.12.5m8 2.33h-2.1q-.17 0-.17-.15l-.02-14.3q0-.17.17-.17h1.89l3.55 8.28-.11-8.11q0-.17.19-.17h2.08q.12 0 .12.17l.03 14.32q0 .13-.11.13h-1.85l-3.63-7.73.15 7.56q0 .17-.19.17m6.74-.11 2.6-14.42q.02-.09.11-.09h3.04q.09 0 .11.09l2.5 14.42q.02.11-.09.11h-2.33q-.08 0-.1-.11l-.23-1.53h-2.86l-.23 1.53q-.02.11-.11.11h-2.33q-.08 0-.08-.11m4.11-9.68-.94 5.9h2.02l-.87-5.9-.12-.78Zm10.05 9.79h-2.37q-.08 0-.08-.11v-11.97h-2.73q-.11 0-.11-.1l.02-2.35q0-.09.09-.09h7.98q.1 0 .1.09v2.35q0 .1-.08.1h-2.75l.02 11.97q0 .11-.09.11m10.8 0h-6.79q-.08 0-.08-.11l.02-14.42q0-.09.08-.09h6.75q.08 0 .08.11v2.35q0 .08-.08.08h-4.31V112h4.31q.08 0 .08.08l.02 2.38q0 .08-.08.08h-4.33v3.67h4.33q.08 0 .08.11v2.39q0 .09-.08.09m4.33-.11 2.61-14.42q.02-.09.1-.09h3.05q.08 0 .1.09l2.5 14.42q.02.11-.08.11h-2.33q-.09 0-.11-.11l-.23-1.53h-2.86l-.23 1.53q-.02.11-.1.11h-2.33q-.09 0-.09-.11m4.12-9.68-.95 5.9h2.02l-.86-5.9-.13-.78Zm9.41 9.79h-3.76q-.09 0-.09-.11l.05-14.42q0-.09.08-.09h4.03q1.2 0 2.14.58.95.58 1.5 1.52.54.95.54 2.06 0 .9-.41 1.68t-.97 1.26q.6.61.94 1.41.34.79.34 1.68 0 1.21-.59 2.22t-1.59 1.61q-.99.6-2.21.6m-1.28-12.12v3.3h1.59q.74 0 1.19-.52.45-.51.45-1.12 0-.67-.48-1.17-.49-.49-1.16-.49Zm0 5.84-.02 3.72h1.3q.75 0 1.3-.56t.55-1.31q0-.76-.55-1.31-.55-.54-1.3-.54Zm11.07 6.49q-1.13 0-2.06-.58-.94-.58-1.51-1.53-.56-.96-.56-2.11l.02-6.66q0-1.16.55-2.1.56-.95 1.51-1.51.94-.57 2.05-.57 1.14 0 2.06.57.93.56 1.48 1.51.56.94.56 2.1l.02 6.66q0 1.15-.56 2.11-.55.95-1.49 1.53-.93.58-2.07.58m0-2.54q.63 0 1.11-.52.47-.51.47-1.16l-.02-6.66q0-.69-.44-1.18-.44-.48-1.12-.48-.65 0-1.11.47-.46.48-.46 1.19v6.66q0 .69.46 1.18.46.5 1.11.5m9.57 2.53q-1.11 0-2.06-.58-.94-.58-1.5-1.54-.56-.97-.56-2.12l.05-10.5q0-.09.08-.09h2.35q.09 0 .09.09v10.5q0 .71.45 1.2.45.5 1.1.5.67 0 1.12-.5.45-.49.45-1.2v-10.5q0-.09.09-.09h2.35q.08 0 .08.09l.05 10.5q0 1.17-.56 2.14-.56.96-1.49 1.53-.94.57-2.09.57m10.27-.2h-2.37q-.09 0-.09-.11v-11.97h-2.73q-.1 0-.1-.1l.02-2.35q0-.09.08-.09h7.98q.11 0 .11.09v2.35q0 .1-.09.1h-2.75l.02 11.97q0 .11-.08.11m10.61.21q-1.13 0-2.06-.58-.94-.58-1.5-1.53-.55-.96-.55-2.11v-.97q0-.1.1-.1h2.35q.09 0 .09.1v.97q0 .69.46 1.18.46.5 1.11.5t1.12-.51q.46-.5.46-1.17 0-.78-1.01-1.35l-1.05-.59q-.71-.39-1.34-.75-1.16-.67-1.71-1.69-.56-1.02-.56-2.3 0-1.18.57-2.11.56-.94 1.5-1.48.93-.55 2.02-.55 1.12 0 2.05.56.94.55 1.49 1.49.56.93.56 2.09v1.72q0 .08-.09.08h-2.35q-.08 0-.08-.08l-.02-1.72q0-.74-.46-1.2-.47-.46-1.1-.46-.65 0-1.11.49-.46.5-.46 1.17 0 .69.29 1.15.3.47 1.07.89l.41.22q.31.15.66.35.36.2.65.35.28.15.34.19 1.05.59 1.66 1.44t.61 2.09q0 1.19-.56 2.15-.55.95-1.49 1.51-.93.56-2.07.56m9.46 0q-1.13 0-2.06-.58-.94-.58-1.51-1.53-.56-.96-.56-2.11l.02-6.66q0-1.16.56-2.1.55-.95 1.5-1.51.94-.57 2.05-.57 1.14 0 2.06.57.93.56 1.48 1.51.56.94.56 2.1l.02 6.66q0 1.15-.56 2.11-.55.95-1.49 1.53-.93.58-2.07.58m0-2.54q.63 0 1.11-.52.47-.51.47-1.16l-.02-6.66q0-.69-.44-1.18-.44-.48-1.12-.48-.65 0-1.11.47-.46.48-.46 1.19v6.66q0 .69.46 1.18.46.5 1.11.5m12.58 2.33h-6.78q-.08 0-.08-.11l.02-14.4q0-.11.1-.11h2.33q.11 0 .11.11l-.02 11.92h4.32q.11 0 .11.11v2.37q0 .11-.11.11m6.38 0h-2.54q-.09 0-.11-.11l-2.9-14.42q-.02-.09.09-.09h2.37q.08 0 .1.09l1.73 9.61 1.68-9.61q.02-.09.1-.09h2.35q.11 0 .09.09l-2.86 14.42q-.02.11-.1.11m6.66 0h-2.37q-.1 0-.1-.11l.02-14.42q0-.09.08-.09h2.35q.09 0 .09.09l.02 14.42q0 .11-.09.11m4.24 0h-2.1q-.17 0-.17-.15l-.02-14.3q0-.17.16-.17h1.89l3.55 8.28-.1-8.11q0-.17.19-.17h2.08q.12 0 .12.17l.02 14.32q0 .13-.1.13h-1.85l-3.63-7.73.14 7.56q0 .17-.18.17m11.29.21q-1.13 0-2.05-.57-.93-.57-1.48-1.52-.56-.96-.56-2.13v-6.66q0-1.13.56-2.09.55-.96 1.49-1.52.93-.57 2.04-.57 1.16 0 2.09.56.94.55 1.48 1.5.55.94.55 2.12v.97q0 .08-.11.08h-2.35q-.08 0-.08-.08v-.8q0-.8-.45-1.33-.45-.52-1.13-.52-.61 0-1.08.5-.47.51-.47 1.18v6.66q0 .69.46 1.18.46.5 1.09.5.68 0 1.13-.49.45-.48.45-1.19v-1.03h-1.47q-.11 0-.11-.11v-2.35q0-.1.11-.1h3.93q.08 0 .08.1v3.49q0 1.17-.56 2.13-.55.95-1.48 1.52-.92.57-2.08.57m11.17-.21h-2.36q-.1 0-.1-.11l.04-14.42q0-.09.08-.09h4.04q1.93 0 3.05 1.18 1.13 1.17 1.13 3.19 0 1.49-.59 2.58t-1.54 1.68q-.94.59-2.05.59h-1.6v5.29q0 .11-.1.11m.1-12.1v4.16h1.6q.67 0 1.16-.64.5-.64.5-1.67 0-.82-.45-1.34-.44-.53-1.21-.53Zm9.49 12.1h-2.37q-.08 0-.08-.11l.04-14.42q0-.09.08-.09h4.24q1.14 0 2.09.56.96.55 1.53 1.49.56.93.56 2.11 0 .78-.23 1.4t-.54 1.05q-.32.43-.57.64 1.13 1.26 1.13 2.96l.02 4.3q0 .11-.1.11h-2.37q-.09 0-.09-.07v-4.34q0-.76-.53-1.31-.54-.56-1.32-.56h-1.38l-.02 6.17q0 .11-.09.11m.11-12.1v3.3h1.8q.65 0 1.16-.48.5-.49.5-1.18 0-.67-.49-1.16-.49-.48-1.17-.48Zm11.44 12.31q-1.13 0-2.07-.58-.93-.58-1.5-1.53-.56-.96-.56-2.11l.02-6.66q0-1.16.55-2.1.56-.95 1.5-1.51.95-.57 2.06-.57 1.14 0 2.06.57.92.56 1.48 1.51.56.94.56 2.1l.02 6.66q0 1.15-.56 2.11-.55.95-1.49 1.53-.93.58-2.07.58m0-2.54q.63 0 1.11-.52.47-.51.47-1.16l-.02-6.66q0-.69-.44-1.18-.45-.48-1.12-.48-.65 0-1.11.47-.46.48-.46 1.19v6.66q0 .69.46 1.18.46.5 1.11.5m9.56 2.33h-3.76q-.09 0-.09-.11l.05-14.42q0-.09.08-.09h4.03q1.2 0 2.14.58.95.58 1.5 1.52.54.95.54 2.06 0 .9-.41 1.68t-.97 1.26q.6.61.94 1.41.34.79.34 1.68 0 1.21-.59 2.22t-1.59 1.61q-.99.6-2.21.6m-1.28-12.12v3.3h1.59q.74 0 1.19-.52.45-.51.45-1.12 0-.67-.48-1.17-.49-.49-1.16-.49Zm0 5.84-.02 3.72h1.3q.75 0 1.3-.56t.55-1.31q0-.76-.55-1.31-.55-.54-1.3-.54Zm14.06 6.28h-6.79q-.08 0-.08-.11l.02-14.4q0-.11.1-.11h2.34q.1 0 .1.11l-.02 11.92h4.33q.1 0 .1.11v2.37q0 .11-.1.11m8.32 0h-6.78q-.08 0-.08-.11l.02-14.42q0-.09.08-.09h6.74q.09 0 .09.11v2.35q0 .08-.09.08h-4.3V112h4.3q.09 0 .09.08l.02 2.38q0 .08-.09.08h-4.32v3.67h4.32q.09 0 .09.11v2.39q0 .09-.09.09m4.41 0h-2.37q-.08 0-.08-.11l.04-14.42q0-.09.08-.09h2.56q.09 0 .15.09l1.91 2.77 1.91-2.77q.07-.09.15-.09h2.58q.09 0 .09.09l.04 14.42q0 .11-.09.11h-2.37q-.08 0-.08-.11l-.02-10.71-2.21 3.19-2.18-3.19-.02 10.71q0 .11-.09.11m12.4.21q-1.13 0-2.07-.58-.93-.58-1.49-1.53-.55-.96-.55-2.11v-.97q0-.1.1-.1h2.35q.09 0 .09.1v.97q0 .69.46 1.18.46.5 1.11.5t1.12-.51q.46-.5.46-1.17 0-.78-1.01-1.35l-1.05-.59q-.71-.39-1.34-.75-1.16-.67-1.72-1.69-.55-1.02-.55-2.3 0-1.18.56-2.11.57-.94 1.51-1.48.93-.55 2.02-.55 1.12 0 2.05.56.93.55 1.49 1.49.56.93.56 2.09v1.72q0 .08-.09.08h-2.35q-.08 0-.08-.08l-.02-1.72q0-.74-.47-1.2-.46-.46-1.09-.46-.65 0-1.11.49-.46.5-.46 1.17 0 .69.29 1.15.3.47 1.07.89l.41.22q.31.15.66.35.36.2.64.35.29.15.35.19 1.05.59 1.66 1.44t.61 2.09q0 1.19-.56 2.15-.55.95-1.49 1.51-.93.56-2.07.56"/></g><path fill="transparent" stroke="transparent" d="M721 0h558v144H721z"/></g></svg>