<svg xmlns="http://www.w3.org/2000/svg" xml:space="preserve" width="2000" height="295" data-id="lg_oQQmvWGWYivPxtfpHT" data-version="1" viewBox="0 0 2000 295"><g data-padding="20"><g transform="translate(10 4.925)scale(.96661)"><rect width="393.246" height="295.337" x="427.907" y="-428.168" fill="none" rx="0" ry="0" transform="translate(502.4 428)"/><path fill="#a47007" d="M950.51 87.86q-5.54 0-9.95-2.63-4.4-2.62-6.93-7.22-2.52-4.61-2.52-10.35v-4.55q0-.4.39-.4h11.19q.4 0 .4.5v4.45q0 3.66 2.08 5.94t5.34 2.28q2.97 0 5.15-2.48 2.18-2.47 2.18-5.74v-49.2q0-.4.39-.4h11.09q.4 0 .4.5l.1 49.1q0 5.45-2.63 10.05-2.62 4.6-6.98 7.37-4.35 2.78-9.7 2.78m45.14 0q-5.35 0-9.75-2.73-4.41-2.72-7.08-7.22-2.68-4.51-2.68-9.95l.1-31.39q0-5.44 2.63-9.9 2.62-4.45 7.07-7.12 4.46-2.68 9.71-2.68 5.34 0 9.7 2.68 4.35 2.67 6.98 7.12 2.62 4.46 2.62 9.9l.1 31.39q0 5.44-2.62 9.95-2.63 4.5-7.03 7.22-4.41 2.73-9.75 2.73m0-11.98q2.97 0 5.19-2.43 2.23-2.42 2.23-5.49l-.1-31.39q0-3.26-2.08-5.54t-5.24-2.28q-3.07 0-5.25 2.23t-2.18 5.59v31.39q0 3.26 2.18 5.59t5.25 2.33m45.05 11.98q-5.34 0-9.7-2.68-4.36-2.67-6.98-7.17-2.62-4.51-2.62-10.05V36.57q0-5.34 2.62-9.85 2.62-4.5 7.03-7.17 4.4-2.68 9.65-2.68 5.45 0 9.85 2.63 4.41 2.62 6.98 7.08 2.58 4.45 2.58 9.99v4.56q0 .39-.5.39h-11.09q-.39 0-.39-.39v-3.76q0-3.77-2.13-6.24-2.13-2.48-5.3-2.48-2.87 0-5.1 2.38-2.22 2.38-2.22 5.54v31.39q0 3.26 2.17 5.59 2.18 2.33 5.15 2.33 3.17 0 5.3-2.28t2.13-5.64v-4.85h-6.93q-.5 0-.5-.5V51.52q0-.49.5-.49h18.51q.4 0 .4.49v16.44q0 5.54-2.63 10.05-2.62 4.5-6.98 7.17-4.35 2.68-9.8 2.68m44.74 0q-5.35 0-9.75-2.73-4.41-2.72-7.08-7.22-2.67-4.51-2.67-9.95l.1-31.39q0-5.44 2.62-9.9 2.62-4.45 7.08-7.12 4.45-2.68 9.7-2.68 5.35 0 9.7 2.68 4.36 2.67 6.98 7.12 2.62 4.46 2.62 9.9l.1 31.39q0 5.44-2.62 9.95-2.62 4.5-7.03 7.22-4.4 2.73-9.75 2.73m0-11.98q2.97 0 5.2-2.43 2.22-2.42 2.22-5.49l-.09-31.39q0-3.26-2.08-5.54t-5.25-2.28q-3.07 0-5.25 2.23t-2.18 5.59v31.39q0 3.26 2.18 5.59t5.25 2.33m38.52 10.99h-11.19q-.39 0-.39-.5l.2-68.01q0-.4.39-.4h20q5.35 0 9.85 2.63 4.5 2.62 7.18 7.02 2.67 4.41 2.67 9.95 0 3.67-1.09 6.59t-2.57 4.95q-1.49 2.03-2.68 3.02 5.35 5.94 5.35 13.96l.1 20.29q0 .5-.5.5h-11.18q-.4 0-.4-.3V66.08q0-3.57-2.52-6.19-2.53-2.62-6.19-2.62h-6.53l-.1 29.1q0 .5-.4.5m.5-57.03v15.55h8.51q3.07 0 5.44-2.28 2.38-2.28 2.38-5.55 0-3.16-2.33-5.44-2.32-2.28-5.49-2.28Zm32.26 56.53L1169 18.36q.09-.4.49-.4h14.36q.39 0 .49.4l11.78 68.01q.1.5-.39.5h-10.99q-.4 0-.5-.5l-1.09-7.23h-13.46l-1.09 7.23q-.1.5-.5.5h-10.98q-.4 0-.4-.5m19.4-45.64-4.45 27.82h9.5l-4.06-27.82-.59-3.66ZM966.64 178.6h-31.98q-.39 0-.39-.5l.1-67.91q0-.49.49-.49h10.99q.49 0 .49.49l-.09 56.23h20.39q.49 0 .49.5v11.18q0 .5-.49.5m3.56-.5 12.28-68.01q.1-.39.49-.39h14.36q.4 0 .49.39l11.79 68.01q.09.5-.4.5h-10.99q-.4 0-.49-.5l-1.09-7.22h-13.47l-1.09 7.22q-.1.5-.49.5H970.6q-.4 0-.4-.5m19.41-45.63-4.46 27.81h9.51l-4.06-27.81-.6-3.67Zm44.36 46.13h-17.72q-.4 0-.4-.5l.2-68.01q0-.39.4-.39h19q5.65 0 10.1 2.72 4.46 2.72 7.03 7.18 2.58 4.45 2.58 9.7 0 4.25-1.93 7.92-1.94 3.66-4.61 5.94 2.87 2.87 4.46 6.63 1.58 3.76 1.58 7.92 0 5.74-2.77 10.49-2.77 4.76-7.48 7.58-4.7 2.82-10.44 2.82m-6.04-57.12v15.54h7.52q3.47 0 5.6-2.43 2.13-2.42 2.13-5.29 0-3.17-2.28-5.5-2.28-2.32-5.45-2.32Zm0 27.52-.1 17.52h6.14q3.56 0 6.14-2.62 2.57-2.63 2.57-6.19t-2.57-6.14q-2.58-2.57-6.14-2.57Zm50.69 30.59q-5.35 0-9.75-2.72-4.41-2.73-7.03-7.23-2.63-4.5-2.63-9.95v-4.55q0-.5.5-.5h11.09q.39 0 .39.5v4.55q0 3.27 2.18 5.59 2.18 2.33 5.25 2.33t5.25-2.38q2.17-2.37 2.17-5.54 0-3.66-4.75-6.34-1.58-.89-4.95-2.77-3.36-1.88-6.33-3.56-5.45-3.17-8.07-7.97-2.63-4.8-2.63-10.84 0-5.55 2.68-9.95 2.67-4.41 7.08-6.98 4.4-2.57 9.55-2.57 5.25 0 9.65 2.62 4.41 2.62 7.03 7.03 2.62 4.4 2.62 9.85v8.12q0 .39-.39.39h-11.09q-.4 0-.4-.39l-.1-8.12q0-3.47-2.17-5.64-2.18-2.18-5.15-2.18-3.07 0-5.25 2.32-2.18 2.33-2.18 5.5 0 3.27 1.39 5.44 1.39 2.18 5.05 4.16.49.3 1.93 1.04 1.43.74 3.12 1.68 1.68.94 3.02 1.64 1.33.69 1.63.89 4.95 2.77 7.82 6.78t2.87 9.85q0 5.64-2.62 10.15-2.62 4.5-7.03 7.13-4.41 2.62-9.75 2.62m48.298-14.133-6.452-6.451 18.422-18.421-18.422-18.396 6.452-6.451 24.847 24.846Zm25.956-7.812h41.58v9.123h-41.58ZM837.59 113.11h5.2a3.8 3.8 0 0 1 7 2c0 2.2-1.8 3.8-3.8 3.8-1.4 0-2.6-.6-3.2-1.8h-3.6l-2.2 2.2v72.2c12-4.2 22.8-10.8 32.2-19l-8.8-10.2c-3.8-5.8-3.8-8-3.8-8-5.8-24.2-4-34.8 6.8-57.4 3.8-7.8 5.6-17.2 5.6-26 .2-26.2-23-44.6-44-50.8-16-4.6-32.8-2.8-48.6 1.6-14 3.8-25.4 12-31.4 25.8-2.6 5.6-4.6 11.8-6.4 18-.6 3 .8 6.6.8 9.6 0 2.8.4 6.4-.8 8.6-4 7.2-8.6 14.2-12.4 21.2-2.4 4.2-1.6 6.6 2.4 8.8 1.6.8 2.8 1.4 4.4 1.8 4.8 1.8 5.6 3.4 4.8 8.2-.4 2 0 3 .2 5.2 0 0 .4 2.2 2.2 1.6-2 2.6-3 4.8 0 7.8 1.6 1.8 2.2 5.2 2 7.6-.2 8.8 1.8 12.4 10.4 13.4 5.6.6 11.8-.2 17.4-.6 3.8-.4 7.2-.4 8.6 3.4 2.6 7 5.2 14 7.4 21 .6 2 .8 4.4 1.4 6.8-.4 2.2-1.2 4.2-2 6q8.7 1.8 18 1.8v-93.8l-16-16h-17.2l-2.2-1.8h-.8a3.8 3.8 0 1 1 3.8-3.8v.8l.6.6h17.2l14.2 14.2v-5l-15.6-15.6h-31.8l-4-4h-.8a3.8 3.8 0 1 1 3.8-3.8v.8l2.8 2.8h31.8l18 18v106.2c2 0 3.8-.2 5.8-.4V92.71l25.4-25.4v-12.6a3.8 3.8 0 0 1 2-7c2.2 0 3.8 1.8 3.8 3.8 0 1.4-.6 2.6-1.8 3.2v14.4l-25.2 25.2v4l13-13v-.8a3.8 3.8 0 1 1 3.8 3.8h-.8l-16 16v4.4l34.6-34.6v-6a3.8 3.8 0 0 1 2-7c2.2 0 3.8 1.8 3.8 3.8 0 1.4-.6 2.6-1.8 3.2v7.8l-38.6 38.8v81.8c2-.2 3.8-.6 5.8-1v-80.2l19.8-19.8h8.8l2-2v-.8a3.8 3.8 0 1 1 7.6 0c0 2-1.8 3.8-3.8 3.8h-.8l-3.2 3.2h-8.8l-17.2 17.2v77.6c2-.4 3.8-1 5.8-1.6v-75.2Zm-55.6-87.4c1.4 0 2.6.6 3.2 1.8h5.2l17.4 17.4h.8a3.8 3.8 0 1 1-3.8 3.8v-.8l-16.2-16.2h-3.4a3.8 3.8 0 0 1-7-2c0-2 1.6-4 3.8-4m-21 11.4h.8l6-6h7.8l33.4 33.4 7-7v-21.8l-4-4h-3.4a3.8 3.8 0 0 1-7-2c0-2 1.8-3.8 3.8-3.8 1.4 0 2.6.6 3.2 1.8h5l6.4 6.4v25.2l-11.2 11.2-34.8-35.2h-4.4l-4.8 4.8v.8a3.8 3.8 0 1 1-7.6 0c0-2.2 1.6-3.8 3.8-3.8m-3.4 8.4c2.2 0 3.8 1.8 3.8 3.8v.8l5.6 5.6h13l-6.6-6.6h-.8a3.8 3.8 0 1 1 3.8-3.8v.8l13.6 13.6h-24.8l-6.8-6.8h-.8c-2.2 0-3.8-1.8-3.8-3.8s1.6-3.6 3.8-3.6m58.4 36.2h-.4l-5.8 5.8-18.6-18.6h-33.2l-7.2-7.2h-.8a3.8 3.8 0 1 1 3.8-3.8v.8l6 6h33.2l16.8 16.8 2.4-2.4c-.2-.4-.2-.8-.2-1.2a3.8 3.8 0 1 1 7.6 0c.2 2-1.6 3.8-3.6 3.8m14.8-38.2v20.4l-4.6 4.6v.8a3.8 3.8 0 1 1-3.8-3.8h.8l3.4-3.4v-18.6a3.8 3.8 0 0 1 2-7c2.2 0 3.8 1.8 3.8 3.8.2 1.4-.4 2.6-1.6 3.2"/><path fill="#030303" stroke="#a47007" stroke-width="4.5" d="M901.19 14.442v167.135"/></g><path fill="transparent" stroke="transparent" d="M700.5 0h599v295h-599z"/></g></svg>